<?xml version="1.0" encoding="UTF-8"?>
<!--Generator: Apple Native CoreSVG 175.5-->
<!DOCTYPE svg
PUBLIC "-//W3C//DTD SVG 1.1//EN"
       "http://www.w3.org/Graphics/SVG/1.1/DTD/svg11.dtd">
<svg version="1.1" xmlns="http://www.w3.org/2000/svg" xmlns:xlink="http://www.w3.org/1999/xlink" width="59.7656" height="59.7949">
 <g>
  <rect height="59.7949" opacity="0" width="59.7656" x="0" y="0"/>
  <path d="M29.8828 59.7656C46.2305 59.7656 59.7656 46.2012 59.7656 29.8828C59.7656 13.5352 46.2012 0 29.8535 0C13.5352 0 0 13.5352 0 29.8828C0 46.2012 13.5645 59.7656 29.8828 59.7656Z" fill="#ff453a"/>
  <path d="M20.0391 42.1875C18.6914 42.1875 17.6367 41.1035 17.6367 39.7559C17.6367 39.1113 17.8711 38.4961 18.3398 38.0566L26.4551 29.9121L18.3398 21.7969C17.8711 21.3281 17.6367 20.7422 17.6367 20.0977C17.6367 18.7207 18.6914 17.6953 20.0391 17.6953C20.7129 17.6953 21.2402 17.9297 21.709 18.3691L29.8828 26.5137L38.1152 18.3398C38.6133 17.8418 39.1406 17.6367 39.7852 17.6367C41.1328 17.6367 42.2168 18.6914 42.2168 20.0391C42.2168 20.7129 42.0117 21.2402 41.4844 21.7676L33.3398 29.9121L41.4551 38.0273C41.9531 38.4668 42.1875 39.082 42.1875 39.7559C42.1875 41.1035 41.1035 42.1875 39.7266 42.1875C39.0527 42.1875 38.4375 41.9531 37.998 41.4844L29.8828 33.3398L21.7969 41.4844C21.3281 41.9531 20.7129 42.1875 20.0391 42.1875Z" fill="#ffffff"/>
 </g>
</svg>
