<?xml version="1.0" encoding="UTF-8"?>
<!--Generator: Apple Native CoreSVG 175.5-->
<!DOCTYPE svg
PUBLIC "-//W3C//DTD SVG 1.1//EN"
       "http://www.w3.org/Graphics/SVG/1.1/DTD/svg11.dtd">
<svg version="1.1" xmlns="http://www.w3.org/2000/svg" xmlns:xlink="http://www.w3.org/1999/xlink" width="39.8438" height="39.8633">
 <g>
  <rect height="39.8633" opacity="0" width="39.8438" x="0" y="0"/>
  <path d="M19.9219 39.8438C30.8203 39.8438 39.8438 30.8008 39.8438 19.9219C39.8438 9.02344 30.8008 0 19.9023 0C9.02344 0 0 9.02344 0 19.9219C0 30.8008 9.04297 39.8438 19.9219 39.8438Z" fill="#ff453a"/>
  <path d="M13.3594 28.125C12.4609 28.125 11.7578 27.4023 11.7578 26.5039C11.7578 26.0742 11.9141 25.6641 12.2266 25.3711L17.6367 19.9414L12.2266 14.5312C11.9141 14.2188 11.7578 13.8281 11.7578 13.3984C11.7578 12.4805 12.4609 11.7969 13.3594 11.7969C13.8086 11.7969 14.1602 11.9531 14.4727 12.2461L19.9219 17.6758L25.4102 12.2266C25.7422 11.8945 26.0938 11.7578 26.5234 11.7578C27.4219 11.7578 28.1445 12.4609 28.1445 13.3594C28.1445 13.8086 28.0078 14.1602 27.6562 14.5117L22.2266 19.9414L27.6367 25.3516C27.9688 25.6445 28.125 26.0547 28.125 26.5039C28.125 27.4023 27.4023 28.125 26.4844 28.125C26.0352 28.125 25.625 27.9688 25.332 27.6562L19.9219 22.2266L14.5312 27.6562C14.2188 27.9688 13.8086 28.125 13.3594 28.125Z" fill="#ffffff"/>
 </g>
</svg>
