<?xml version="1.0" encoding="UTF-8"?>
<!--Generator: Apple Native CoreSVG 175.5-->
<!DOCTYPE svg
PUBLIC "-//W3C//DTD SVG 1.1//EN"
       "http://www.w3.org/Graphics/SVG/1.1/DTD/svg11.dtd">
<svg version="1.1" xmlns="http://www.w3.org/2000/svg" xmlns:xlink="http://www.w3.org/1999/xlink" width="39.8438" height="39.8633">
 <g>
  <rect height="39.8633" opacity="0" width="39.8438" x="0" y="0"/>
  <path d="M19.9219 39.8438C30.8203 39.8438 39.8438 30.8008 39.8438 19.9219C39.8438 9.02344 30.8008 0 19.9023 0C9.02344 0 0 9.02344 0 19.9219C0 30.8008 9.04297 39.8438 19.9219 39.8438Z" fill="#28cd41"/>
  <path d="M17.7344 29.4727C17.0703 29.4727 16.5234 29.1992 16.0156 28.5156L11.1133 22.5C10.8203 22.1094 10.6445 21.6797 10.6445 21.2305C10.6445 20.3516 11.3281 19.6289 12.207 19.6289C12.7734 19.6289 13.2031 19.8047 13.6914 20.4492L17.6562 25.5664L25.9961 12.168C26.3672 11.582 26.875 11.2695 27.3828 11.2695C28.2422 11.2695 29.043 11.8555 29.043 12.7734C29.043 13.2031 28.7891 13.6523 28.5547 14.0625L19.375 28.5156C18.9648 29.1602 18.3984 29.4727 17.7344 29.4727Z" fill="#ffffff"/>
 </g>
</svg>
