<?xml version="1.0" encoding="UTF-8"?>
<!--Generator: Apple Native CoreSVG 175.5-->
<!DOCTYPE svg
PUBLIC "-//W3C//DTD SVG 1.1//EN"
       "http://www.w3.org/Graphics/SVG/1.1/DTD/svg11.dtd">
<svg version="1.1" xmlns="http://www.w3.org/2000/svg" xmlns:xlink="http://www.w3.org/1999/xlink" width="59.7656" height="59.7949">
 <g>
  <rect height="59.7949" opacity="0" width="59.7656" x="0" y="0"/>
  <path d="M29.8828 59.7656C46.2305 59.7656 59.7656 46.2012 59.7656 29.8828C59.7656 13.5352 46.2012 0 29.8535 0C13.5352 0 0 13.5352 0 29.8828C0 46.2012 13.5645 59.7656 29.8828 59.7656Z" fill="#28cd41"/>
  <path d="M26.6016 44.209C25.6055 44.209 24.7852 43.7988 24.0234 42.7734L16.6699 33.75C16.2305 33.1641 15.9668 32.5195 15.9668 31.8457C15.9668 30.5273 16.9922 29.4434 18.3105 29.4434C19.1602 29.4434 19.8047 29.707 20.5371 30.6738L26.4844 38.3496L38.9941 18.252C39.5508 17.373 40.3125 16.9043 41.0742 16.9043C42.3633 16.9043 43.5645 17.7832 43.5645 19.1602C43.5645 19.8047 43.1836 20.4785 42.832 21.0938L29.0625 42.7734C28.4473 43.7402 27.5977 44.209 26.6016 44.209Z" fill="#ffffff"/>
 </g>
</svg>
